<svg width="4404" height="1599" xmlns="http://www.w3.org/2000/svg" xmlns:xlink="http://www.w3.org/1999/xlink" xml:space="preserve" overflow="hidden"><g transform="translate(-250 -270)"><path d="M253.5 932.5C253.5 720.423 425.423 548.5 637.5 548.5 849.577 548.5 1021.5 720.423 1021.5 932.5 1021.5 1144.58 849.577 1316.5 637.5 1316.5 425.423 1316.5 253.5 1144.58 253.5 932.5Z" stroke="#FFFFFF" stroke-width="6.875" stroke-miterlimit="8" fill="#FFFFFF" fill-rule="evenodd"/><path d="M601.5 932.5C601.5 912.618 617.618 896.5 637.5 896.5 657.382 896.5 673.5 912.618 673.5 932.5 673.5 952.382 657.382 968.5 637.5 968.5 617.618 968.5 601.5 952.382 601.5 932.5Z" stroke="#000000" stroke-width="6.875" stroke-miterlimit="8" fill-rule="evenodd"/><path d="M718.5 932.5C718.5 912.618 734.618 896.5 754.5 896.5 774.382 896.5 790.5 912.618 790.5 932.5 790.5 952.382 774.382 968.5 754.5 968.5 734.618 968.5 718.5 952.382 718.5 932.5Z" stroke="#000000" stroke-width="6.875" stroke-miterlimit="8" fill-rule="evenodd"/><path d="M484.5 932.5C484.5 912.618 500.618 896.5 520.5 896.5 540.382 896.5 556.5 912.618 556.5 932.5 556.5 952.382 540.382 968.5 520.5 968.5 500.618 968.5 484.5 952.382 484.5 932.5Z" stroke="#000000" stroke-width="6.875" stroke-miterlimit="8" fill-rule="evenodd"/><path d="M484.5 812.5C484.5 792.618 500.618 776.5 520.5 776.5 540.382 776.5 556.5 792.618 556.5 812.5 556.5 832.382 540.382 848.5 520.5 848.5 500.618 848.5 484.5 832.382 484.5 812.5Z" stroke="#000000" stroke-width="6.875" stroke-miterlimit="8" fill-rule="evenodd"/><path d="M484.5 1052.5C484.5 1032.62 500.618 1016.5 520.5 1016.5 540.382 1016.5 556.5 1032.62 556.5 1052.5 556.5 1072.38 540.382 1088.5 520.5 1088.5 500.618 1088.5 484.5 1072.38 484.5 1052.5Z" stroke="#000000" stroke-width="6.875" stroke-miterlimit="8" fill-rule="evenodd"/><path d="M718.5 812.5C718.5 792.618 734.618 776.5 754.5 776.5 774.382 776.5 790.5 792.618 790.5 812.5 790.5 832.382 774.382 848.5 754.5 848.5 734.618 848.5 718.5 832.382 718.5 812.5Z" stroke="#000000" stroke-width="6.875" stroke-miterlimit="8" fill-rule="evenodd"/><path d="M718.5 1052.5C718.5 1032.62 734.618 1016.5 754.5 1016.5 774.382 1016.5 790.5 1032.62 790.5 1052.5 790.5 1072.38 774.382 1088.5 754.5 1088.5 734.618 1088.5 718.5 1072.38 718.5 1052.5Z" stroke="#000000" stroke-width="6.875" stroke-miterlimit="8" fill-rule="evenodd"/><text fill="#FFFFFF" font-family="Baloo,Baloo_MSFontService,sans-serif" font-weight="400" font-size="761" transform="matrix(1 0 0 1 1053.86 1108)">mathhub</text></g></svg>